# xmcd
#
# Track frame offsets:
#	150
#	18511
#	41971
#	65515
#	80868
#	100427
#	113515
#	125284
#	144797
#	155443
#	168492
#	186421
#	214114
#	223803
#
# Disc length: 3234 seconds
#
# Revision: 0
# Processed by: cddbd v1.4PL0 Copyright (c) Steve Scherf et al.
# Submitted via: dBpowerAMP V4.0
#
DISCID=ce0ca00e
DTITLE=Chuck Berry - Chuck Berry
DYEAR=1900
DGENRE=R&B
TTITLE0=School Day
TTITLE1=In The Wee Wee Hours
TTITLE2=Johnny B Goode
TTITLE3=Carol
TTITLE4=Hoochie Coochie Man
TTITLE5=Sweet Little Sixteen
TTITLE6=Rock and Roll Music
TTITLE7=My-Ding-A-Ling
TTITLE8=Maybellene
TTITLE9=Too Much Monkey Business
TTITLE10=Nadine (Is That You)
TTITLE11=Reelin' and Rockin'
TTITLE12=Johnny B Goode (Reprise)
TTITLE13=Bonsoir Cherie
EXTD=
EXTT0=
EXTT1=
EXTT2=
EXTT3=
EXTT4=
EXTT5=
EXTT6=
EXTT7=
EXTT8=
EXTT9=
EXTT10=
EXTT11=
EXTT12=
EXTT13=
PLAYORDER=
